name D:\school\WTK\thesis\model\3dpredictsim\Results\batch_windlass\Pog_s1_tmt_aCst_d00_k1000_WL10_ig24.mot
datacolumns 128
datarows 4
range 1.04251323 1.07378863
endheader
time	pelvis_tilt	pelvis_list	pelvis_rotation	pelvis_tx	pelvis_ty	pelvis_tz	hip_flexion_l	hip_adduction_l	hip_rotation_l	hip_flexion_r	hip_adduction_r	hip_rotation_r	knee_angle_l	knee_angle_r	ankle_angle_l	ankle_angle_r	subtalar_angle_l	subtalar_angle_r	tmt_angle_l	tmt_angle_r	mtp_angle_l	mtp_angle_r	lumbar_extension	lumbar_bending	lumbar_rotation	arm_flex_l	arm_add_l	arm_rot_l	arm_flex_r	arm_add_r	arm_rot_r	elbow_flex_l	elbow_flex_r	pro_sup_l	pro_sup_r	glut_med1_l/activation	glut_med2_l/activation	glut_med3_l/activation	glut_min1_l/activation	glut_min2_l/activation	glut_min3_l/activation	semimem_l/activation	semiten_l/activation	bifemlh_l/activation	bifemsh_l/activation	sar_l/activation	add_long_l/activation	add_brev_l/activation	add_mag1_l/activation	add_mag2_l/activation	add_mag3_l/activation	tfl_l/activation	pect_l/activation	grac_l/activation	glut_max1_l/activation	glut_max2_l/activation	glut_max3_l/activation	iliacus_l/activation	psoas_l/activation	quad_fem_l/activation	gem_l/activation	peri_l/activation	rect_fem_l/activation	vas_med_l/activation	vas_int_l/activation	vas_lat_l/activation	med_gas_l/activation	lat_gas_l/activation	soleus_l/activation	tib_post_l/activation	flex_dig_l/activation	flex_hal_l/activation	tib_ant_l/activation	per_brev_l/activation	per_long_l/activation	per_tert_l/activation	ext_dig_l/activation	ext_hal_l/activation	ercspn_l/activation	intobl_l/activation	extobl_l/activation	glut_med1_r/activation	glut_med2_r/activation	glut_med3_r/activation	glut_min1_r/activation	glut_min2_r/activation	glut_min3_r/activation	semimem_r/activation	semiten_r/activation	bifemlh_r/activation	bifemsh_r/activation	sar_r/activation	add_long_r/activation	add_brev_r/activation	add_mag1_r/activation	add_mag2_r/activation	add_mag3_r/activation	tfl_r/activation	pect_r/activation	grac_r/activation	glut_max1_r/activation	glut_max2_r/activation	glut_max3_r/activation	iliacus_r/activation	psoas_r/activation	quad_fem_r/activation	gem_r/activation	peri_r/activation	rect_fem_r/activation	vas_med_r/activation	vas_int_r/activation	vas_lat_r/activation	med_gas_r/activation	lat_gas_r/activation	soleus_r/activation	tib_post_r/activation	flex_dig_r/activation	flex_hal_r/activation	tib_ant_r/activation	per_brev_r/activation	per_long_r/activation	per_tert_r/activation	ext_dig_r/activation	ext_hal_r/activation	ercspn_r/activation	intobl_r/activation	extobl_r/activation	
          1.04251323	         -2.92042348	         -1.44657500	          5.81541895	          1.30314154	          0.85789963	         -0.00162547	        -17.72089557	         -1.41688314	          7.92507970	         31.30694436	          2.83459233	         -1.33224452	        -10.65242511	        -19.85802071	         -2.37872866	         -0.99179642	         11.43504839	         -3.44699034	         -1.94485608	         -0.12538432	         26.75335574	          1.30899606	         -0.77517814	         -0.23559503	         -1.63225683	          4.69506670	        -13.46321346	         15.26745606	         -9.17058999	        -13.60443340	          7.41817232	         32.68928539	         17.84268447	         86.51662706	         86.51662706	          0.30593793	          0.08687352	          0.05000006	          0.30228626	          0.19050760	          0.09256294	          0.05000045	          0.05000005	          0.05000004	          0.06702278	          0.08571679	          0.09457259	          0.14991615	          0.05000043	          0.05000068	          0.05000016	          0.23689416	          0.07260553	          0.05000023	          0.05000032	          0.05000021	          0.05000017	          0.28506976	          0.43694398	          0.05000002	          0.05000007	          0.05000003	          0.15346337	          0.12072558	          0.07348199	          0.06448326	          0.27246498	          0.34942623	          0.23668183	          0.18629038	          0.18931956	          0.25705391	          0.05000000	          0.06760029	          0.14395889	          0.05000003	          0.05000001	          0.05000002	          0.05000000	          0.05000008	          0.06062524	          0.05868746	          0.05025073	          0.05000002	          0.05868762	          0.05868761	          0.05000078	          0.05868760	          0.05868737	          0.05868763	          0.05000012	          0.05000011	          0.11139173	          0.23497328	          0.12600534	          0.10887322	          0.11161131	          0.05000003	          0.07979772	          0.05868836	          0.05000005	          0.05000005	          0.13260370	          0.07234524	          0.05679836	          0.31330527	          0.14725018	          0.09014774	          0.05000004	          0.16377742	          0.17054042	          0.14265165	          0.05868760	          0.05868760	          0.05868760	          0.05000000	          0.05000007	          0.05000019	          0.54379252	          0.29612457	          0.15105962	          0.58397029	          0.67688344	          0.35004618	          0.05000004	          0.10938491	          0.11139137	
          1.05293836	         -2.90795249	         -1.58959200	          6.06900917	          1.31900901	          0.85679553	         -0.00142207	        -17.32857093	         -1.74379624	          7.63888744	         30.74077683	          3.26982883	         -1.02037550	        -12.90415821	        -20.29740992	         -3.27338582	         -0.92901157	         12.44793138	         -4.16236334	         -2.30537829	         -0.16312621	         27.48886667	          1.51309895	         -0.58334341	          0.04966057	         -1.68519152	          4.47370537	        -13.48410713	         15.60518804	        -10.09166272	        -13.60422916	          7.26383463	         33.52595160	         17.70165983	         86.51662706	         86.51662706	          0.26064952	          0.07401351	          0.05320464	          0.25753843	          0.16230650	          0.07886073	          0.05911870	          0.05000010	          0.05000030	          0.05710131	          0.07302804	          0.19811043	          0.31642137	          0.17055909	          0.05870716	          0.15339262	          0.20182640	          0.06185786	          0.05000048	          0.05000229	          0.05000227	          0.05868476	          0.24287049	          0.37957332	          0.05868754	          0.05868748	          0.05000016	          0.13074597	          0.11403687	          0.13074574	          0.13074540	          0.23213160	          0.29770017	          0.20164549	          0.15871355	          0.16129435	          0.21900187	          0.10912949	          0.05759334	          0.12264847	          0.05000002	          0.12946984	          0.05000029	          0.05707598	          0.06642112	          0.05868765	          0.05000000	          0.05000002	          0.12000304	          0.05000002	          0.05000002	          0.05000003	          0.05000001	          0.05000001	          0.05000003	          0.05000001	          0.05866981	          0.09490228	          0.20018989	          0.30408030	          0.22455391	          0.13508261	          0.05000042	          0.06798553	          0.05000073	          0.09019007	          0.10678605	          0.11297448	          0.06163644	          0.06888436	          0.33968752	          0.12545255	          0.07680306	          0.05868764	          0.29685273	          0.29505661	          0.25311914	          0.05000000	          0.05000000	          0.05000000	          0.05000000	          0.05468747	          0.05000005	          0.53508124	          0.25228888	          0.13300506	          0.54603590	          0.59392255	          0.29822838	          0.05000000	          0.09319251	          0.09490195	
          1.06336349	         -2.89230577	         -1.72754740	          6.29537238	          1.33507081	          0.85557611	         -0.00123511	        -16.85623953	         -2.04876613	          7.34642649	         29.91797124	          3.66346502	         -0.66589827	        -15.30118956	        -20.78628806	         -4.21007877	         -0.68943408	         13.37147476	         -4.89781173	         -2.62062354	         -0.35365595	         27.71390657	          1.56003722	         -0.37736784	          0.33448466	         -1.72750739	          4.18671849	        -13.51464592	         15.88277227	        -11.00573727	        -13.61158255	          7.17200186	         34.36384287	         17.55759403	         86.51662706	         86.51662706	          0.33379037	          0.06305719	          0.05000000	          0.28495044	          0.13828005	          0.06718687	          0.08119164	          0.05000006	          0.05000003	          0.05000002	          0.06221764	          0.17037012	          0.26958133	          0.14531101	          0.05001687	          0.13068573	          0.17194991	          0.08690597	          0.05000007	          0.05000018	          0.05000012	          0.05000008	          0.20691805	          0.35881449	          0.05000000	          0.05000004	          0.05000001	          0.11139146	          0.09715584	          0.11139127	          0.11139098	          0.19776883	          0.25363120	          0.17179562	          0.13521897	          0.13741774	          0.18658274	          0.20159261	          0.12940813	          0.13470346	          0.39173745	          0.24151840	          0.14589130	          0.09129726	          0.05658871	          0.05000004	          0.28860968	          0.30209435	          0.39417217	          0.31525033	          0.14348137	          0.24503039	          0.08153685	          0.11278512	          0.08667866	          0.08085330	          0.05000021	          0.08085378	          0.17055554	          0.25906691	          0.19131295	          0.13742508	          0.05000004	          0.05868802	          0.11208776	          0.21495846	          0.17396380	          0.11147073	          0.05756565	          0.05868733	          0.28940312	          0.10688167	          0.18385425	          0.05000003	          0.25290924	          0.26983927	          0.21605618	          0.05028423	          0.05000021	          0.06551753	          0.07255844	          0.05000005	          0.05000007	          0.53866439	          0.21494220	          0.11331614	          0.46520545	          0.56418927	          0.30823448	          0.05310325	          0.08231650	          0.08085348	
          1.07378863	         -2.87569298	         -1.84790835	          6.49100326	          1.35107241	          0.85432370	         -0.00103488	        -16.27806098	         -2.32186031	          7.05165048	         28.94711876	          4.03107344	         -0.31619491	        -17.86618721	        -21.00962973	         -5.10243118	         -0.90887764	         14.19868904	         -5.64631112	         -2.74665671	         -0.28078878	         27.01141139	          1.53273696	         -0.18097753	          0.60016407	         -1.76056119	          3.87924218	        -13.55712062	         16.12124028	        -11.85597803	        -13.61998339	          7.15996651	         35.17365833	         17.37944042	         86.51662706	         86.51662706	          0.28437893	          0.05372276	          0.05000004	          0.24276886	          0.11781028	          0.05724114	          0.10881324	          0.05000017	          0.05000036	          0.05000004	          0.05300756	          0.19509061	          0.22967494	          0.12380050	          0.05066804	          0.11134025	          0.14649624	          0.07404138	          0.05000043	          0.05000076	          0.05000061	          0.05000068	          0.17628769	          0.31369865	          0.05000006	          0.05000031	          0.05000008	          0.09490203	          0.08277375	          0.09490188	          0.09490163	          0.16849283	          0.21608582	          0.14636447	          0.11520239	          0.11707566	          0.15896274	          0.20259870	          0.11025170	          0.11476314	          0.33374803	          0.24173203	          0.12429483	          0.12014502	          0.05000000	          0.05000000	          0.42064365	          0.46544401	          0.50771664	          0.26858368	          0.39135720	          0.36212969	          0.06946685	          0.09608943	          0.07384754	          0.06888448	          0.05000004	          0.06888489	          0.14530797	          0.22071701	          0.22127175	          0.16939208	          0.05000005	          0.05000055	          0.09549528	          0.30739976	          0.22926155	          0.16525694	          0.05000000	          0.05000000	          0.24656238	          0.09105985	          0.15663814	          0.05000000	          0.35950935	          0.37003308	          0.30402058	          0.05000007	          0.05000052	          0.05868760	          0.18005394	          0.09100820	          0.07077983	          0.59788017	          0.18312401	          0.09654179	          0.39634044	          0.48067165	          0.31429901	          0.07517357	          0.07013107	          0.06888462	
